<svg xmlns="http://www.w3.org/2000/svg" xmlns:xlink="http://www.w3.org/1999/xlink" width="700" zoomAndPan="magnify" viewBox="0 0 525 525.000007" height="700" preserveAspectRatio="xMidYMid meet" version="1.0"><defs><g/><clipPath id="b1fc6525a4"><path d="M 0.5 0 L 524.5 0 L 524.5 524 L 0.5 524 Z M 0.5 0 " clip-rule="nonzero"/></clipPath><clipPath id="e1e2679651"><path d="M 0.5 0 L 273 0 L 273 452 L 0.5 452 Z M 0.5 0 " clip-rule="nonzero"/></clipPath><clipPath id="8b1275bec5"><rect x="0" width="273" y="0" height="452"/></clipPath><clipPath id="871a0e84f3"><rect x="0" width="273" y="0" height="450"/></clipPath><clipPath id="1026205279"><path d="M 181 74 L 301 74 L 301 357 L 181 357 Z M 181 74 " clip-rule="nonzero"/></clipPath><clipPath id="bc42dea43b"><path d="M 198.183594 74.828125 L 300.398438 350.4375 L 284.125 356.472656 L 181.910156 80.863281 Z M 198.183594 74.828125 " clip-rule="nonzero"/></clipPath><clipPath id="b16b68b54d"><path d="M 0.832031 0.738281 L 119.40625 0.738281 L 119.40625 282.679688 L 0.832031 282.679688 Z M 0.832031 0.738281 " clip-rule="nonzero"/></clipPath><clipPath id="0438900eae"><path d="M 17.183594 0.828125 L 119.398438 276.4375 L 103.125 282.472656 L 0.910156 6.863281 Z M 17.183594 0.828125 " clip-rule="nonzero"/></clipPath><clipPath id="a33dff8569"><rect x="0" width="120" y="0" height="283"/></clipPath><clipPath id="b9184ca02f"><path d="M 71 193 L 182 193 L 182 361 L 71 361 Z M 71 193 " clip-rule="nonzero"/></clipPath><clipPath id="e7c3d248db"><path d="M 127.707031 193.554688 L 181.914062 339.71875 L 126.109375 360.414062 L 71.902344 214.25 Z M 127.707031 193.554688 " clip-rule="nonzero"/></clipPath><clipPath id="cfa56cfc0b"><path d="M 0.882812 0.550781 L 111 0.550781 L 111 167.511719 L 0.882812 167.511719 Z M 0.882812 0.550781 " clip-rule="nonzero"/></clipPath><clipPath id="7644bd45ed"><path d="M 56.707031 0.554688 L 110.914062 146.71875 L 55.109375 167.414062 L 0.902344 21.25 Z M 56.707031 0.554688 " clip-rule="nonzero"/></clipPath><clipPath id="d985cb8011"><rect x="0" width="111" y="0" height="168"/></clipPath><clipPath id="b125a90c21"><path d="M 283 210 L 335 210 L 335 308 L 283 308 Z M 283 210 " clip-rule="nonzero"/></clipPath><clipPath id="370521d0bb"><path d="M 301.402344 210.585938 L 334.769531 300.554688 L 316.59375 307.296875 L 283.226562 217.328125 Z M 301.402344 210.585938 " clip-rule="nonzero"/></clipPath><clipPath id="aef84ae87f"><path d="M 0.160156 0.558594 L 51.902344 0.558594 L 51.902344 97.335938 L 0.160156 97.335938 Z M 0.160156 0.558594 " clip-rule="nonzero"/></clipPath><clipPath id="7a52625a34"><path d="M 18.402344 0.585938 L 51.769531 90.554688 L 33.59375 97.296875 L 0.226562 7.328125 Z M 18.402344 0.585938 " clip-rule="nonzero"/></clipPath><clipPath id="88bbf1f9dc"><rect x="0" width="52" y="0" height="98"/></clipPath><clipPath id="81a4a0c011"><rect x="0" width="43" y="0" height="13"/></clipPath></defs><g clip-path="url(#b1fc6525a4)"><path fill="#ffffff" d="M 0.5 0 L 524.5 0 L 524.5 524 L 0.5 524 Z M 0.5 0 " fill-opacity="1" fill-rule="nonzero"/><path fill="#ffffff" d="M 0.5 0 L 524.5 0 L 524.5 524 L 0.5 524 Z M 0.5 0 " fill-opacity="1" fill-rule="nonzero"/></g><g clip-path="url(#e1e2679651)"><g transform="matrix(1, 0, 0, 1, 0.000000000000000056, 0.000000000000109615)"><g clip-path="url(#8b1275bec5)"><g fill="#f37e21" fill-opacity="1"><g transform="translate(-0.384924, 356.887037)"><g><path d="M 253.40625 -68.859375 C 253.40625 -46.828125 245.925781 -29.84375 230.96875 -17.90625 C 216.019531 -5.96875 194.644531 0 166.84375 0 L 26.75 0 L 26.75 -262.0625 L 164.875 -262.0625 C 192.675781 -262.0625 213.921875 -256.15625 228.609375 -244.34375 C 243.304688 -232.539062 250.65625 -215.625 250.65625 -193.59375 L 250.65625 -188.875 C 250.65625 -182.570312 249.671875 -176.335938 247.703125 -170.171875 C 245.734375 -164.015625 242.78125 -158.378906 238.84375 -153.265625 C 234.90625 -148.148438 229.921875 -143.753906 223.890625 -140.078125 C 217.859375 -136.410156 210.90625 -133.785156 203.03125 -132.203125 C 211.6875 -130.628906 219.226562 -128.003906 225.65625 -124.328125 C 232.082031 -120.660156 237.328125 -116.269531 241.390625 -111.15625 C 245.460938 -106.039062 248.484375 -100.53125 250.453125 -94.625 C 252.421875 -88.726562 253.40625 -82.765625 253.40625 -76.734375 Z M 183.359375 -184.546875 C 183.359375 -192.410156 181 -198.769531 176.28125 -203.625 C 171.5625 -208.476562 163.691406 -210.90625 152.671875 -210.90625 L 96.796875 -210.90625 L 96.796875 -149.125 L 150.703125 -149.125 C 161.984375 -149.125 170.242188 -151.613281 175.484375 -156.59375 C 180.734375 -161.582031 183.359375 -168.273438 183.359375 -176.671875 Z M 183.75 -85 C 183.75 -93.914062 181.191406 -100.734375 176.078125 -105.453125 C 170.960938 -110.171875 162.765625 -112.53125 151.484375 -112.53125 L 96.796875 -112.53125 L 96.796875 -50.359375 L 153.0625 -50.359375 C 164.34375 -50.359375 172.273438 -52.785156 176.859375 -57.640625 C 181.453125 -62.492188 183.75 -68.859375 183.75 -76.734375 Z M 183.75 -85 "/></g></g></g></g></g></g><g transform="matrix(1, 0, 0, 1, 240, 0.000000000000109615)"><g clip-path="url(#871a0e84f3)"><g fill="#2a2a2a" fill-opacity="1"><g transform="translate(1.887754, 357.844245)"><g><path d="M 189.671875 0 L 124.15625 -99.78125 L 93.3125 -65.515625 L 93.3125 0 L 25.90625 0 L 25.90625 -253.65625 L 93.3125 -253.65625 L 93.3125 -137.484375 L 187.390625 -253.65625 L 261.65625 -253.65625 L 169.484375 -146.25 C 170.492188 -145.238281 172.648438 -142.316406 175.953125 -137.484375 C 179.253906 -132.660156 183.253906 -126.757812 187.953125 -119.78125 C 192.648438 -112.800781 197.789062 -104.992188 203.375 -96.359375 C 208.96875 -87.722656 214.554688 -78.960938 220.140625 -70.078125 C 233.335938 -49.253906 248.0625 -25.894531 264.3125 0 Z M 189.671875 0 "/></g></g></g></g></g><g clip-path="url(#1026205279)"><g clip-path="url(#bc42dea43b)"><g transform="matrix(1, 0, 0, 1, 181, 74)"><g clip-path="url(#a33dff8569)"><g clip-path="url(#b16b68b54d)"><g clip-path="url(#0438900eae)"><path fill="#ffffff" d="M 17.183594 0.828125 L 119.402344 276.453125 L 103.128906 282.488281 L 0.910156 6.863281 Z M 17.183594 0.828125 " fill-opacity="1" fill-rule="nonzero"/></g></g></g></g></g></g><g clip-path="url(#b9184ca02f)"><g clip-path="url(#e7c3d248db)"><g transform="matrix(1, 0, 0, 1, 71, 193)"><g clip-path="url(#d985cb8011)"><g clip-path="url(#cfa56cfc0b)"><g clip-path="url(#7644bd45ed)"><path fill="#ffffff" d="M 56.707031 0.554688 L 110.953125 146.824219 L 55.148438 167.519531 L 0.902344 21.25 Z M 56.707031 0.554688 " fill-opacity="1" fill-rule="nonzero"/></g></g></g></g></g></g><g clip-path="url(#b125a90c21)"><g clip-path="url(#370521d0bb)"><g transform="matrix(1, 0, 0, 1, 283, 210)"><g clip-path="url(#88bbf1f9dc)"><g clip-path="url(#aef84ae87f)"><g clip-path="url(#7a52625a34)"><path fill="#ffffff" d="M 18.402344 0.585938 L 51.761719 90.542969 L 33.585938 97.28125 L 0.226562 7.328125 Z M 18.402344 0.585938 " fill-opacity="1" fill-rule="nonzero"/></g></g></g></g></g></g><g fill="#2a2a2a" fill-opacity="1"><g transform="translate(7.100009, 415.07592)"><g/></g></g><g fill="#2a2a2a" fill-opacity="1"><g transform="translate(20.375503, 415.07592)"><g><path d="M 2.421875 0 L 2.421875 -27.109375 L 11.921875 -27.109375 C 15.203125 -27.109375 17.691406 -26.476562 19.390625 -25.21875 C 21.097656 -23.957031 21.953125 -22.109375 21.953125 -19.671875 C 21.953125 -18.347656 21.609375 -17.179688 20.921875 -16.171875 C 20.242188 -15.160156 19.296875 -14.414062 18.078125 -13.9375 C 19.460938 -13.59375 20.554688 -12.890625 21.359375 -11.828125 C 22.160156 -10.773438 22.5625 -9.488281 22.5625 -7.96875 C 22.5625 -5.363281 21.726562 -3.390625 20.0625 -2.046875 C 18.40625 -0.703125 16.035156 -0.0195312 12.953125 0 Z M 8 -11.796875 L 8 -4.484375 L 12.78125 -4.484375 C 14.101562 -4.484375 15.132812 -4.796875 15.875 -5.421875 C 16.613281 -6.046875 16.984375 -6.910156 16.984375 -8.015625 C 16.984375 -10.503906 15.695312 -11.765625 13.125 -11.796875 Z M 8 -15.75 L 12.140625 -15.75 C 14.953125 -15.800781 16.359375 -16.925781 16.359375 -19.125 C 16.359375 -20.351562 16 -21.234375 15.28125 -21.765625 C 14.570312 -22.304688 13.453125 -22.578125 11.921875 -22.578125 L 8 -22.578125 Z M 8 -15.75 "/></g></g></g><g fill="#2a2a2a" fill-opacity="1"><g transform="translate(48.476868, 415.07592)"><g><path d="M 22.9375 -27.109375 L 22.9375 -9.25 C 22.9375 -6.28125 22.007812 -3.929688 20.15625 -2.203125 C 18.300781 -0.484375 15.765625 0.375 12.546875 0.375 C 9.378906 0.375 6.863281 -0.460938 5 -2.140625 C 3.144531 -3.816406 2.195312 -6.117188 2.15625 -9.046875 L 2.15625 -27.109375 L 7.75 -27.109375 L 7.75 -9.21875 C 7.75 -7.4375 8.171875 -6.140625 9.015625 -5.328125 C 9.867188 -4.515625 11.046875 -4.109375 12.546875 -4.109375 C 15.679688 -4.109375 17.273438 -5.757812 17.328125 -9.0625 L 17.328125 -27.109375 Z M 22.9375 -27.109375 "/></g></g></g><g fill="#2a2a2a" fill-opacity="1"><g transform="translate(77.341347, 415.07592)"><g><path d="M 12.453125 -9.921875 L 8 -9.921875 L 8 0 L 2.421875 0 L 2.421875 -27.109375 L 12.484375 -27.109375 C 15.691406 -27.109375 18.160156 -26.394531 19.890625 -24.96875 C 21.628906 -23.539062 22.5 -21.519531 22.5 -18.90625 C 22.5 -17.0625 22.097656 -15.519531 21.296875 -14.28125 C 20.503906 -13.050781 19.296875 -12.070312 17.671875 -11.34375 L 23.53125 -0.265625 L 23.53125 0 L 17.53125 0 Z M 8 -14.453125 L 12.515625 -14.453125 C 13.910156 -14.453125 14.992188 -14.804688 15.765625 -15.515625 C 16.535156 -16.234375 16.921875 -17.21875 16.921875 -18.46875 C 16.921875 -19.75 16.554688 -20.753906 15.828125 -21.484375 C 15.109375 -22.210938 13.992188 -22.578125 12.484375 -22.578125 L 8 -22.578125 Z M 8 -14.453125 "/></g></g></g><g fill="#2a2a2a" fill-opacity="1"><g transform="translate(105.442712, 415.07592)"><g><path d="M 10.90625 -10.875 L 8 -7.75 L 8 0 L 2.421875 0 L 2.421875 -27.109375 L 8 -27.109375 L 8 -14.8125 L 10.46875 -18.1875 L 17.375 -27.109375 L 24.234375 -27.109375 L 14.609375 -15.0625 L 24.515625 0 L 17.875 0 Z M 10.90625 -10.875 "/></g></g></g><g fill="#2a2a2a" fill-opacity="1"><g transform="translate(133.413782, 415.07592)"><g><path d="M 24.6875 -12.9375 C 24.6875 -10.269531 24.210938 -7.929688 23.265625 -5.921875 C 22.328125 -3.910156 20.976562 -2.359375 19.21875 -1.265625 C 17.46875 -0.171875 15.457031 0.375 13.1875 0.375 C 10.9375 0.375 8.929688 -0.160156 7.171875 -1.234375 C 5.410156 -2.316406 4.046875 -3.859375 3.078125 -5.859375 C 2.109375 -7.867188 1.613281 -10.175781 1.59375 -12.78125 L 1.59375 -14.125 C 1.59375 -16.789062 2.070312 -19.140625 3.03125 -21.171875 C 4 -23.203125 5.359375 -24.757812 7.109375 -25.84375 C 8.867188 -26.9375 10.878906 -27.484375 13.140625 -27.484375 C 15.398438 -27.484375 17.40625 -26.9375 19.15625 -25.84375 C 20.914062 -24.757812 22.273438 -23.203125 23.234375 -21.171875 C 24.203125 -19.140625 24.6875 -16.796875 24.6875 -14.140625 Z M 19.03125 -14.171875 C 19.03125 -17.003906 18.519531 -19.160156 17.5 -20.640625 C 16.476562 -22.117188 15.023438 -22.859375 13.140625 -22.859375 C 11.265625 -22.859375 9.816406 -22.128906 8.796875 -20.671875 C 7.785156 -19.210938 7.273438 -17.078125 7.265625 -14.265625 L 7.265625 -12.9375 C 7.265625 -10.164062 7.769531 -8.015625 8.78125 -6.484375 C 9.800781 -4.960938 11.269531 -4.203125 13.1875 -4.203125 C 15.050781 -4.203125 16.484375 -4.9375 17.484375 -6.40625 C 18.492188 -7.882812 19.007812 -10.03125 19.03125 -12.84375 Z M 19.03125 -14.171875 "/></g></g></g><g fill="#2a2a2a" fill-opacity="1"><g transform="translate(163.506699, 415.07592)"><g><path d="M 8 -4.484375 L 19.859375 -4.484375 L 19.859375 0 L 2.421875 0 L 2.421875 -27.109375 L 8 -27.109375 Z M 8 -4.484375 "/></g></g></g><g fill="#2a2a2a" fill-opacity="1"><g transform="translate(187.922751, 415.07592)"><g><path d="M 24.6875 -12.9375 C 24.6875 -10.269531 24.210938 -7.929688 23.265625 -5.921875 C 22.328125 -3.910156 20.976562 -2.359375 19.21875 -1.265625 C 17.46875 -0.171875 15.457031 0.375 13.1875 0.375 C 10.9375 0.375 8.929688 -0.160156 7.171875 -1.234375 C 5.410156 -2.316406 4.046875 -3.859375 3.078125 -5.859375 C 2.109375 -7.867188 1.613281 -10.175781 1.59375 -12.78125 L 1.59375 -14.125 C 1.59375 -16.789062 2.070312 -19.140625 3.03125 -21.171875 C 4 -23.203125 5.359375 -24.757812 7.109375 -25.84375 C 8.867188 -26.9375 10.878906 -27.484375 13.140625 -27.484375 C 15.398438 -27.484375 17.40625 -26.9375 19.15625 -25.84375 C 20.914062 -24.757812 22.273438 -23.203125 23.234375 -21.171875 C 24.203125 -19.140625 24.6875 -16.796875 24.6875 -14.140625 Z M 19.03125 -14.171875 C 19.03125 -17.003906 18.519531 -19.160156 17.5 -20.640625 C 16.476562 -22.117188 15.023438 -22.859375 13.140625 -22.859375 C 11.265625 -22.859375 9.816406 -22.128906 8.796875 -20.671875 C 7.785156 -19.210938 7.273438 -17.078125 7.265625 -14.265625 L 7.265625 -12.9375 C 7.265625 -10.164062 7.769531 -8.015625 8.78125 -6.484375 C 9.800781 -4.960938 11.269531 -4.203125 13.1875 -4.203125 C 15.050781 -4.203125 16.484375 -4.9375 17.484375 -6.40625 C 18.492188 -7.882812 19.007812 -10.03125 19.03125 -12.84375 Z M 14.21875 -34.359375 L 20.078125 -34.359375 L 14.921875 -28.59375 L 10.546875 -28.59375 Z M 14.21875 -34.359375 "/></g></g></g><g fill="#2a2a2a" fill-opacity="1"><g transform="translate(218.015656, 415.07592)"><g><path d="M 8 -4.484375 L 19.859375 -4.484375 L 19.859375 0 L 2.421875 0 L 2.421875 -27.109375 L 8 -27.109375 Z M 8 -4.484375 "/></g></g></g><g fill="#2a2a2a" fill-opacity="1"><g transform="translate(242.431719, 415.07592)"><g><path d="M 17.71875 -5.578125 L 7.9375 -5.578125 L 6.0625 0 L 0.125 0 L 10.21875 -27.109375 L 15.390625 -27.109375 L 25.546875 0 L 19.609375 0 Z M 9.4375 -10.109375 L 16.21875 -10.109375 L 12.8125 -20.25 Z M 9.4375 -10.109375 "/></g></g></g><g fill="#2a2a2a" fill-opacity="1"><g transform="translate(271.854579, 415.07592)"><g><path d="M 8 -9.546875 L 8 0 L 2.421875 0 L 2.421875 -27.109375 L 13 -27.109375 C 15.03125 -27.109375 16.816406 -26.734375 18.359375 -25.984375 C 19.910156 -25.242188 21.097656 -24.1875 21.921875 -22.8125 C 22.753906 -21.4375 23.171875 -19.875 23.171875 -18.125 C 23.171875 -15.46875 22.257812 -13.375 20.4375 -11.84375 C 18.625 -10.3125 16.113281 -9.546875 12.90625 -9.546875 Z M 8 -14.078125 L 13 -14.078125 C 14.46875 -14.078125 15.585938 -14.421875 16.359375 -15.109375 C 17.140625 -15.804688 17.53125 -16.800781 17.53125 -18.09375 C 17.53125 -19.425781 17.140625 -20.5 16.359375 -21.3125 C 15.578125 -22.132812 14.5 -22.554688 13.125 -22.578125 L 8 -22.578125 Z M 8 -14.078125 "/></g></g></g><g fill="#2a2a2a" fill-opacity="1"><g transform="translate(300.216533, 415.07592)"><g/></g></g><g fill="#f37e21" fill-opacity="1"><g transform="translate(313.489058, 415.07592)"><g><path d="M 10.90625 -10.875 L 8 -7.75 L 8 0 L 2.421875 0 L 2.421875 -27.109375 L 8 -27.109375 L 8 -14.8125 L 10.46875 -18.1875 L 17.375 -27.109375 L 24.234375 -27.109375 L 14.609375 -15.0625 L 24.515625 0 L 17.875 0 Z M 10.90625 -10.875 "/></g></g></g><g fill="#f37e21" fill-opacity="1"><g transform="translate(341.460129, 415.07592)"><g><path d="M 24.6875 -12.9375 C 24.6875 -10.269531 24.210938 -7.929688 23.265625 -5.921875 C 22.328125 -3.910156 20.976562 -2.359375 19.21875 -1.265625 C 17.46875 -0.171875 15.457031 0.375 13.1875 0.375 C 10.9375 0.375 8.929688 -0.160156 7.171875 -1.234375 C 5.410156 -2.316406 4.046875 -3.859375 3.078125 -5.859375 C 2.109375 -7.867188 1.613281 -10.175781 1.59375 -12.78125 L 1.59375 -14.125 C 1.59375 -16.789062 2.070312 -19.140625 3.03125 -21.171875 C 4 -23.203125 5.359375 -24.757812 7.109375 -25.84375 C 8.867188 -26.9375 10.878906 -27.484375 13.140625 -27.484375 C 15.398438 -27.484375 17.40625 -26.9375 19.15625 -25.84375 C 20.914062 -24.757812 22.273438 -23.203125 23.234375 -21.171875 C 24.203125 -19.140625 24.6875 -16.796875 24.6875 -14.140625 Z M 19.03125 -14.171875 C 19.03125 -17.003906 18.519531 -19.160156 17.5 -20.640625 C 16.476562 -22.117188 15.023438 -22.859375 13.140625 -22.859375 C 11.265625 -22.859375 9.816406 -22.128906 8.796875 -20.671875 C 7.785156 -19.210938 7.273438 -17.078125 7.265625 -14.265625 L 7.265625 -12.9375 C 7.265625 -10.164062 7.769531 -8.015625 8.78125 -6.484375 C 9.800781 -4.960938 11.269531 -4.203125 13.1875 -4.203125 C 15.050781 -4.203125 16.484375 -4.9375 17.484375 -6.40625 C 18.492188 -7.882812 19.007812 -10.03125 19.03125 -12.84375 Z M 11.1875 -31.171875 C 11.1875 -30.515625 10.941406 -29.957031 10.453125 -29.5 C 9.972656 -29.050781 9.351562 -28.828125 8.59375 -28.828125 C 7.832031 -28.828125 7.210938 -29.054688 6.734375 -29.515625 C 6.265625 -29.972656 6.03125 -30.523438 6.03125 -31.171875 C 6.03125 -31.816406 6.265625 -32.375 6.734375 -32.84375 C 7.210938 -33.3125 7.832031 -33.546875 8.59375 -33.546875 C 9.363281 -33.546875 9.988281 -33.3125 10.46875 -32.84375 C 10.945312 -32.375 11.1875 -31.816406 11.1875 -31.171875 Z M 15.09375 -31.171875 C 15.09375 -31.847656 15.34375 -32.410156 15.84375 -32.859375 C 16.351562 -33.316406 16.96875 -33.546875 17.6875 -33.546875 C 18.414062 -33.546875 19.023438 -33.3125 19.515625 -32.84375 C 20.003906 -32.382812 20.25 -31.828125 20.25 -31.171875 C 20.25 -30.523438 20.015625 -29.96875 19.546875 -29.5 C 19.078125 -29.039062 18.457031 -28.8125 17.6875 -28.8125 C 16.914062 -28.8125 16.289062 -29.039062 15.8125 -29.5 C 15.332031 -29.96875 15.09375 -30.523438 15.09375 -31.171875 Z M 15.09375 -31.171875 "/></g></g></g><g fill="#f37e21" fill-opacity="1"><g transform="translate(371.553046, 415.07592)"><g><path d="M 8.34375 -4.484375 L 22 -4.484375 L 22 0 L 1.359375 0 L 1.359375 -3.28125 L 14.765625 -22.578125 L 1.375 -22.578125 L 1.375 -27.109375 L 21.703125 -27.109375 L 21.703125 -23.90625 Z M 8.34375 -4.484375 "/></g></g></g><g fill="#f37e21" fill-opacity="1"><g transform="translate(398.425973, 415.07592)"><g><path d="M 8 -9.546875 L 8 0 L 2.421875 0 L 2.421875 -27.109375 L 13 -27.109375 C 15.03125 -27.109375 16.816406 -26.734375 18.359375 -25.984375 C 19.910156 -25.242188 21.097656 -24.1875 21.921875 -22.8125 C 22.753906 -21.4375 23.171875 -19.875 23.171875 -18.125 C 23.171875 -15.46875 22.257812 -13.375 20.4375 -11.84375 C 18.625 -10.3125 16.113281 -9.546875 12.90625 -9.546875 Z M 8 -14.078125 L 13 -14.078125 C 14.46875 -14.078125 15.585938 -14.421875 16.359375 -15.109375 C 17.140625 -15.804688 17.53125 -16.800781 17.53125 -18.09375 C 17.53125 -19.425781 17.140625 -20.5 16.359375 -21.3125 C 15.578125 -22.132812 14.5 -22.554688 13.125 -22.578125 L 8 -22.578125 Z M 8 -14.078125 "/></g></g></g><g fill="#f37e21" fill-opacity="1"><g transform="translate(426.787915, 415.07592)"><g><path d="M 24.6875 -12.9375 C 24.6875 -10.269531 24.210938 -7.929688 23.265625 -5.921875 C 22.328125 -3.910156 20.976562 -2.359375 19.21875 -1.265625 C 17.46875 -0.171875 15.457031 0.375 13.1875 0.375 C 10.9375 0.375 8.929688 -0.160156 7.171875 -1.234375 C 5.410156 -2.316406 4.046875 -3.859375 3.078125 -5.859375 C 2.109375 -7.867188 1.613281 -10.175781 1.59375 -12.78125 L 1.59375 -14.125 C 1.59375 -16.789062 2.070312 -19.140625 3.03125 -21.171875 C 4 -23.203125 5.359375 -24.757812 7.109375 -25.84375 C 8.867188 -26.9375 10.878906 -27.484375 13.140625 -27.484375 C 15.398438 -27.484375 17.40625 -26.9375 19.15625 -25.84375 C 20.914062 -24.757812 22.273438 -23.203125 23.234375 -21.171875 C 24.203125 -19.140625 24.6875 -16.796875 24.6875 -14.140625 Z M 19.03125 -14.171875 C 19.03125 -17.003906 18.519531 -19.160156 17.5 -20.640625 C 16.476562 -22.117188 15.023438 -22.859375 13.140625 -22.859375 C 11.265625 -22.859375 9.816406 -22.128906 8.796875 -20.671875 C 7.785156 -19.210938 7.273438 -17.078125 7.265625 -14.265625 L 7.265625 -12.9375 C 7.265625 -10.164062 7.769531 -8.015625 8.78125 -6.484375 C 9.800781 -4.960938 11.269531 -4.203125 13.1875 -4.203125 C 15.050781 -4.203125 16.484375 -4.9375 17.484375 -6.40625 C 18.492188 -7.882812 19.007812 -10.03125 19.03125 -12.84375 Z M 19.03125 -14.171875 "/></g></g></g><g fill="#f37e21" fill-opacity="1"><g transform="translate(456.880832, 415.07592)"><g><path d="M 24.46875 0 L 18.875 0 L 8 -17.828125 L 8 0 L 2.421875 0 L 2.421875 -27.109375 L 8 -27.109375 L 18.890625 -9.234375 L 18.890625 -27.109375 L 24.46875 -27.109375 Z M 24.46875 0 "/></g></g></g><g fill="#f37e21" fill-opacity="1"><g transform="translate(487.569356, 415.07592)"><g><path d="M 22.828125 -22.578125 L 14.515625 -22.578125 L 14.515625 0 L 8.9375 0 L 8.9375 -22.578125 L 0.75 -22.578125 L 0.75 -27.109375 L 22.828125 -27.109375 Z M 22.828125 -22.578125 "/></g></g></g><g transform="matrix(1, 0, 0, 1, 241, 368)"><g clip-path="url(#81a4a0c011)"><g fill="#ffffff" fill-opacity="1"><g transform="translate(1.283884, 9.680454)"><g><path d="M 6.15625 -3.25 C 6.15625 -2.570312 6.039062 -1.976562 5.8125 -1.46875 C 5.582031 -0.957031 5.253906 -0.566406 4.828125 -0.296875 C 4.410156 -0.0351562 3.921875 0.09375 3.359375 0.09375 C 2.816406 0.09375 2.332031 -0.0390625 1.90625 -0.3125 C 1.488281 -0.582031 1.160156 -0.960938 0.921875 -1.453125 C 0.691406 -1.953125 0.570312 -2.53125 0.5625 -3.1875 L 0.5625 -3.6875 C 0.5625 -4.351562 0.675781 -4.941406 0.90625 -5.453125 C 1.144531 -5.972656 1.472656 -6.367188 1.890625 -6.640625 C 2.316406 -6.910156 2.804688 -7.046875 3.359375 -7.046875 C 3.910156 -7.046875 4.398438 -6.910156 4.828125 -6.640625 C 5.253906 -6.378906 5.582031 -5.988281 5.8125 -5.46875 C 6.039062 -4.957031 6.15625 -4.363281 6.15625 -3.6875 Z M 5.25 -3.703125 C 5.25 -4.523438 5.082031 -5.15625 4.75 -5.59375 C 4.414062 -6.039062 3.953125 -6.265625 3.359375 -6.265625 C 2.773438 -6.265625 2.316406 -6.039062 1.984375 -5.59375 C 1.648438 -5.15625 1.476562 -4.546875 1.46875 -3.765625 L 1.46875 -3.25 C 1.46875 -2.445312 1.632812 -1.816406 1.96875 -1.359375 C 2.3125 -0.910156 2.773438 -0.6875 3.359375 -0.6875 C 3.953125 -0.6875 4.410156 -0.898438 4.734375 -1.328125 C 5.066406 -1.765625 5.238281 -2.382812 5.25 -3.1875 Z M 5.25 -3.703125 "/></g></g></g><g fill="#ffffff" fill-opacity="1"><g transform="translate(8.976945, 9.680454)"><g><path d="M 5.703125 -6.953125 L 5.703125 -2.21875 C 5.703125 -1.5625 5.492188 -1.023438 5.078125 -0.609375 C 4.671875 -0.191406 4.117188 0.0390625 3.421875 0.09375 L 3.171875 0.09375 C 2.410156 0.09375 1.800781 -0.109375 1.34375 -0.515625 C 0.894531 -0.929688 0.671875 -1.5 0.671875 -2.21875 L 0.671875 -6.953125 L 1.578125 -6.953125 L 1.578125 -2.25 C 1.578125 -1.738281 1.710938 -1.34375 1.984375 -1.0625 C 2.265625 -0.789062 2.660156 -0.65625 3.171875 -0.65625 C 3.691406 -0.65625 4.085938 -0.789062 4.359375 -1.0625 C 4.640625 -1.34375 4.78125 -1.734375 4.78125 -2.234375 L 4.78125 -6.953125 Z M 5.703125 -6.953125 "/></g></g></g><g fill="#ffffff" fill-opacity="1"><g transform="translate(16.287921, 9.680454)"><g><path d="M 5.609375 -6.203125 L 3.375 -6.203125 L 3.375 0 L 2.46875 0 L 2.46875 -6.203125 L 0.234375 -6.203125 L 0.234375 -6.953125 L 5.609375 -6.953125 Z M 5.609375 -6.203125 "/></g></g></g><g fill="#ffffff" fill-opacity="1"><g transform="translate(23.092632, 9.680454)"><g><path d="M 1.734375 -0.75 L 5.03125 -0.75 L 5.03125 0 L 0.8125 0 L 0.8125 -6.953125 L 1.734375 -6.953125 Z M 1.734375 -0.75 "/></g></g></g><g fill="#ffffff" fill-opacity="1"><g transform="translate(29.324215, 9.680454)"><g><path d="M 4.734375 -3.21875 L 1.71875 -3.21875 L 1.71875 -0.75 L 5.21875 -0.75 L 5.21875 0 L 0.8125 0 L 0.8125 -6.953125 L 5.171875 -6.953125 L 5.171875 -6.203125 L 1.71875 -6.203125 L 1.71875 -3.96875 L 4.734375 -3.96875 Z M 4.734375 -3.21875 "/></g></g></g><g fill="#ffffff" fill-opacity="1"><g transform="translate(35.851914, 9.680454)"><g><path d="M 5.609375 -6.203125 L 3.375 -6.203125 L 3.375 0 L 2.46875 0 L 2.46875 -6.203125 L 0.234375 -6.203125 L 0.234375 -6.953125 L 5.609375 -6.953125 Z M 5.609375 -6.203125 "/></g></g></g></g></g></svg>