<svg width="25" height="24" viewBox="0 0 25 24" fill="none" xmlns="http://www.w3.org/2000/svg">
<g id="Phone">
<path id="Vector" d="M15.9116 13.6256C16.0154 13.5565 16.1349 13.5144 16.2591 13.5031C16.3834 13.4918 16.5085 13.5117 16.6231 13.5609L21.0444 15.5419C21.1934 15.6056 21.3177 15.7158 21.3989 15.8561C21.48 15.9963 21.5135 16.1591 21.4944 16.32C21.3487 17.4085 20.8127 18.407 19.986 19.1299C19.1593 19.8528 18.0982 20.2508 17 20.25C13.6185 20.25 10.3755 18.9067 7.98439 16.5156C5.5933 14.1245 4.25 10.8815 4.25 7.5C4.24916 6.40182 4.6472 5.3407 5.37009 4.514C6.09298 3.6873 7.09152 3.15128 8.18 3.00563C8.34091 2.98651 8.50368 3.02002 8.64395 3.10114C8.78422 3.18226 8.89444 3.30663 8.95813 3.45563L10.9391 7.88063C10.9877 7.99428 11.0076 8.1182 10.9968 8.24136C10.986 8.36453 10.9449 8.48311 10.8772 8.58656L8.87375 10.9688C8.80269 11.076 8.76066 11.1998 8.75179 11.3282C8.74291 11.4565 8.76749 11.5849 8.82313 11.7009C9.59844 13.2881 11.2391 14.9091 12.8309 15.6769C12.9475 15.7323 13.0766 15.7563 13.2053 15.7466C13.334 15.7369 13.458 15.6938 13.565 15.6216L15.9116 13.6256Z" stroke="#101010" stroke-width="1.5" stroke-linecap="round" stroke-linejoin="round"/>
</g>
</svg>
